<?xml version="1.0" encoding="UTF-8"?>
<svg width="50" height="50" version="1.1" viewBox="0 0 13.229 13.229" xmlns="http://www.w3.org/2000/svg">
<path 
transform="matrix(.10123 .027171 -.027171 .10123 6.4248 6.0357)" 
d="m36.221 55.461-36.356 9.7416a24.828 24.828 15 0 1-23.982-6.426l-26.615-26.615a24.828 24.828 75 0 1-6.426-23.982l9.7416-36.356a24.828 24.828 135 0 1 17.556-17.556l36.356-9.7416a24.828 24.828 15 0 1 23.982 6.426l26.615 26.615a24.828 24.828 75 0 1 6.426 23.982l-9.7416 36.356a24.828 24.828 135 0 1-17.556 17.556z" 
fill="#ff1635" stroke-linecap="round" stroke-linejoin="round" stroke-width="7.719" style="paint-order:fill markers stroke"/>
</svg>